<?xml version="1.0" encoding="utf-8"?><svg xmlns="http://www.w3.org/2000/svg" xmlns:xlink="http://www.w3.org/1999/xlink"><symbol viewBox="0 0 512 512" id="credit-card" xmlns="http://www.w3.org/2000/svg"><path d="M458.667 85.333H53.333C23.936 85.333 0 109.269 0 138.667v234.667c0 29.397 23.936 53.333 53.333 53.333h405.333c29.397 0 53.333-23.936 53.333-53.333V138.667c.001-29.398-23.935-53.334-53.332-53.334zm32 288c0 17.643-14.357 32-32 32H53.333c-17.643 0-32-14.357-32-32V138.667c0-17.643 14.357-32 32-32h405.333c17.643 0 32 14.357 32 32v234.666z"/><path d="M501.333 149.333H10.667C4.779 149.333 0 154.112 0 160v64c0 5.888 4.779 10.667 10.667 10.667h490.667c5.888 0 10.667-4.779 10.667-10.667v-64c-.001-5.888-4.78-10.667-10.668-10.667zm-10.666 64H21.333v-42.667h469.333v42.667zm-288 85.334h-128c-5.888 0-10.667 4.779-10.667 10.667S68.779 320 74.667 320h128c5.888 0 10.667-4.779 10.667-10.667s-4.779-10.666-10.667-10.666zm0 42.666h-128C68.779 341.333 64 346.112 64 352s4.779 10.667 10.667 10.667h128c5.888 0 10.667-4.779 10.667-10.667-.001-5.888-4.779-10.667-10.667-10.667zm213.333-64h-21.333c-17.643 0-32 14.357-32 32v21.333c0 17.643 14.357 32 32 32H416c17.643 0 32-14.357 32-32v-21.333c0-17.642-14.357-32-32-32zm10.667 53.334c0 5.888-4.779 10.667-10.667 10.667h-21.333c-5.888 0-10.667-4.779-10.667-10.667v-21.333c0-5.888 4.779-10.667 10.667-10.667H416c5.888 0 10.667 4.779 10.667 10.667v21.333z"/></symbol><symbol viewBox="0 0 96.124 96.123" id="facebook-logo" xmlns="http://www.w3.org/2000/svg"><path d="M72.089.02L59.624 0C45.62 0 36.57 9.285 36.57 23.656v10.907H24.037a1.96 1.96 0 0 0-1.96 1.961v15.803a1.96 1.96 0 0 0 1.96 1.96H36.57v39.876a1.96 1.96 0 0 0 1.96 1.96h16.352a1.96 1.96 0 0 0 1.96-1.96V54.287h14.654a1.96 1.96 0 0 0 1.96-1.96l.006-15.803a1.963 1.963 0 0 0-1.961-1.961H56.842v-9.246c0-4.444 1.059-6.7 6.848-6.7l8.397-.003a1.96 1.96 0 0 0 1.959-1.96V1.98A1.96 1.96 0 0 0 72.089.02z"/></symbol><symbol viewBox="0 0 512.00096 512.00096" id="instagram" xmlns="http://www.w3.org/2000/svg"><path d="M373.406 0H138.594C62.172 0 0 62.172 0 138.594V373.41C0 449.828 62.172 512 138.594 512H373.41C449.828 512 512 449.828 512 373.41V138.594C512 62.172 449.828 0 373.406 0zm108.578 373.41c0 59.867-48.707 108.574-108.578 108.574H138.594c-59.871 0-108.578-48.707-108.578-108.574V138.594c0-59.871 48.707-108.578 108.578-108.578H373.41c59.867 0 108.574 48.707 108.574 108.578zm0 0"/><path d="M256 116.004c-77.195 0-139.996 62.8-139.996 139.996S178.804 395.996 256 395.996 395.996 333.196 395.996 256 333.196 116.004 256 116.004zm0 249.976c-60.64 0-109.98-49.335-109.98-109.98 0-60.64 49.34-109.98 109.98-109.98 60.645 0 109.98 49.34 109.98 109.98 0 60.645-49.335 109.98-109.98 109.98zM399.344 66.285c-22.813 0-41.367 18.559-41.367 41.367 0 22.813 18.554 41.371 41.367 41.371s41.37-18.558 41.37-41.37-18.558-41.368-41.37-41.368zm0 52.719c-6.258 0-11.352-5.094-11.352-11.352 0-6.261 5.094-11.351 11.352-11.351 6.261 0 11.355 5.09 11.355 11.351 0 6.258-5.094 11.352-11.355 11.352zm0 0"/></symbol><symbol id="logo-black" viewBox="0 0 238.06 45.19" xmlns="http://www.w3.org/2000/svg"><defs><style>.dcls-1{fill:#4d4d4d}</style></defs><title>Logo_SVG</title><path class="dcls-1" d="M41.79 38.36a11.26 11.26 0 0 1-4.45-.89A11.77 11.77 0 0 1 33.71 35a11.2 11.2 0 0 1-2.46-3.59 11 11 0 0 1-.89-4.41 15.58 15.58 0 0 1 .83-5.2 12.51 12.51 0 0 1 2.32-4.13A10.57 10.57 0 0 1 37.12 15a11.15 11.15 0 0 1 4.71-1 11 11 0 0 1 4.24.8 10.35 10.35 0 0 1 3.3 2.2 9.59 9.59 0 0 1 2.91 6.89H34.82a15.25 15.25 0 0 0 .61 4.38 11.06 11.06 0 0 0 1.69 3.48A8 8 0 0 0 39.73 34a6.9 6.9 0 0 0 3.35.82 8.69 8.69 0 0 0 2.92-.48 9.88 9.88 0 0 0 2.53-1.29 9.38 9.38 0 0 0 1.92-1.85 6.67 6.67 0 0 0 1.11-2.12l1.34.58a10.66 10.66 0 0 1-1.61 3.41 12.23 12.23 0 0 1-2.63 2.74 13.33 13.33 0 0 1-3.28 1.86 9.78 9.78 0 0 1-3.59.69zM46.43 22a6.52 6.52 0 0 0-.43-2.5 6.07 6.07 0 0 0-1.3-2 5.88 5.88 0 0 0-4.26-1.78 4.61 4.61 0 0 0-2 .47 5.47 5.47 0 0 0-1.7 1.31 7.74 7.74 0 0 0-1.22 2 8.29 8.29 0 0 0-.7 2.5zm79.67 15.87h-4.64v-3.21c-.54.41-1.07.84-1.61 1.29a10.73 10.73 0 0 1-1.74 1.2 9.44 9.44 0 0 1-2 .87 8.79 8.79 0 0 1-2.59.34 5.89 5.89 0 0 1-4.42-1.65 5.78 5.78 0 0 1-1.61-4.2 5.85 5.85 0 0 1 1.32-3.86 11.46 11.46 0 0 1 3.35-2.7 23.38 23.38 0 0 1 4.51-1.87q2.47-.76 4.84-1.34v-1.48c0-2.14-.4-3.63-1.21-4.46a4.42 4.42 0 0 0-3.34-1.25 5.06 5.06 0 0 0-1.9.31 3.08 3.08 0 0 0-1.16.81 2.64 2.64 0 0 0-.58 1.11 5.09 5.09 0 0 0-.16 1.3 4.7 4.7 0 0 1-.47 2.18 1.86 1.86 0 0 1-1.85.94 2.25 2.25 0 0 1-1.76-.78 2.89 2.89 0 0 1-.69-2 3.42 3.42 0 0 1 .76-2.14 6.79 6.79 0 0 1 2.05-1.72 12.1 12.1 0 0 1 3-1.16 15.32 15.32 0 0 1 3.6-.4 14.3 14.3 0 0 1 3.86.45 7 7 0 0 1 2.57 1.24 4.8 4.8 0 0 1 1.43 2 7.17 7.17 0 0 1 .44 2.54zm-4.64-13.66c-1 .33-2.07.72-3.17 1.18a18.63 18.63 0 0 0-3 1.61 10.15 10.15 0 0 0-2.29 2 3.5 3.5 0 0 0-.89 2.32 4.33 4.33 0 0 0 .31 1.63 4.41 4.41 0 0 0 .85 1.36 4.06 4.06 0 0 0 1.2.91 3.1 3.1 0 0 0 1.43.34 5.46 5.46 0 0 0 2.86-.78c.86-.52 1.77-1.13 2.72-1.81zm71.85 14.46a14.44 14.44 0 0 1-5.21-.92 12.44 12.44 0 0 1-4.1-2.54 11.53 11.53 0 0 1-3.66-8.54 12.74 12.74 0 0 1 1-5 11.91 11.91 0 0 1 2.7-4 12.58 12.58 0 0 1 4.11-2.6 14 14 0 0 1 5.21-1 14.25 14.25 0 0 1 5.22.93 13.14 13.14 0 0 1 4.13 2.51 11.53 11.53 0 0 1 2.74 3.75 11 11 0 0 1 1 4.63 12.36 12.36 0 0 1-1 4.92 12.22 12.22 0 0 1-2.74 4 13.3 13.3 0 0 1-4.13 2.72 13.13 13.13 0 0 1-5.27 1.14zm.95-2.88a2.83 2.83 0 0 0 1.79-.65 5.55 5.55 0 0 0 1.4-1.72 9.69 9.69 0 0 0 .92-2.5 12.47 12.47 0 0 0 .31-3 25.81 25.81 0 0 0-.38-4.24 13 13 0 0 0-1.11-3.5 6.37 6.37 0 0 0-2-2.36 5 5 0 0 0-3-.84 2.48 2.48 0 0 0-1.61.64 5.69 5.69 0 0 0-1.33 1.7 10.24 10.24 0 0 0-.92 2.43 11.05 11.05 0 0 0-.33 2.91 21.17 21.17 0 0 0 .46 4.31 14 14 0 0 0 1.25 3.51 7.45 7.45 0 0 0 2 2.39 4.07 4.07 0 0 0 2.55.92zm-18.94-17.05a7.9 7.9 0 0 0-1.62-2.38 7.55 7.55 0 0 0-2.36-1.59 7.16 7.16 0 0 0-2.87-.59 12.32 12.32 0 0 0-4.38.84 12.87 12.87 0 0 0-3.8 2.13 6.8 6.8 0 0 0-2.85-2.15 9.29 9.29 0 0 0-3.67-.79 9.73 9.73 0 0 0-3.48.68 16.69 16.69 0 0 0-3.48 1.84V14l-5.24 1.46a2.47 2.47 0 0 0-1.91 2.45v20.31h7.15v-17.3a9.78 9.78 0 0 1 2.36-1.79 5.27 5.27 0 0 1 2.54-.77 1.61 1.61 0 0 1 .94.32 3.21 3.21 0 0 1 .81.83 4 4 0 0 1 .56 1.21 5.62 5.62 0 0 1 .2 1.51v16h7.1V20.92a7.6 7.6 0 0 1 2.25-1.79 5.48 5.48 0 0 1 2.6-.77 2.09 2.09 0 0 1 1.8 1.15 5 5 0 0 1 .72 2.72v16h7.24V21.64a7.18 7.18 0 0 0-.61-2.9zm37.54-14.07A2.67 2.67 0 0 0 211 6.91v31.31h7.1v-35zm12.27 4.95a4.15 4.15 0 0 0 5.43 0 3.17 3.17 0 0 0 1.13-2.45 3.24 3.24 0 0 0-1.13-2.47 4.09 4.09 0 0 0-5.43 0A3.24 3.24 0 0 0 224 7.17a3.17 3.17 0 0 0 1.13 2.45zm1.17 5.76a2.79 2.79 0 0 0-2 2.6v20.24h7.1V14l-5.12 1.42zM21.57 9.42a2.75 2.75 0 0 0 1.89.69 2.8 2.8 0 0 0 1.88-.69 2.11 2.11 0 0 0 .8-1.67 2.07 2.07 0 0 0-.8-1.63 2.81 2.81 0 0 0-1.88-.7 2.76 2.76 0 0 0-1.89.7 2.11 2.11 0 0 0-.78 1.63 2.16 2.16 0 0 0 .78 1.67zm79.83-6.14l-.19.07a3.1 3.1 0 0 0-2.42 2.32v10.51a8.43 8.43 0 0 0-2.37-1.61 7.19 7.19 0 0 0-3-.58 11.09 11.09 0 0 0-4.78 1 13.19 13.19 0 0 0-6.54 6.78 11.8 11.8 0 0 0-1 4.67 13.71 13.71 0 0 0 .81 4.56A12.45 12.45 0 0 0 84 34.81a10.17 10.17 0 0 0 3.15 2.59 8.09 8.09 0 0 0 3.86 1 12.15 12.15 0 0 0 4.08-.74 12.34 12.34 0 0 0 3.69-2v2.77h4.64V2.7zm-2.61 30.17a9.09 9.09 0 0 1-2.28 1.67 6 6 0 0 1-2.86.74 5.24 5.24 0 0 1-2.86-.86 8.11 8.11 0 0 1-2.34-2.3 11.53 11.53 0 0 1-1.58-3.39 14.35 14.35 0 0 1-.58-4.17 13.48 13.48 0 0 1 .51-3.8 9.65 9.65 0 0 1 1.43-3 6.93 6.93 0 0 1 2.12-1.94 5.13 5.13 0 0 1 2.59-.69 5.35 5.35 0 0 1 2.12.45 5.85 5.85 0 0 1 1.87 1.25 6.16 6.16 0 0 1 1.34 1.94 6 6 0 0 1 .52 2.52zM76.4 18.32a7.53 7.53 0 0 0-1.27-2.26 6.06 6.06 0 0 0-1.88-1.51A4.74 4.74 0 0 0 71 14a10.12 10.12 0 0 0-4.64 1.16 15.1 15.1 0 0 0-4.42 3.57v-4l-2.48.72a3.71 3.71 0 0 0-2.17 3.15v19.27h4.65V20.51a13.67 13.67 0 0 1 3.34-2.44 7.16 7.16 0 0 1 3.22-.91 3.44 3.44 0 0 1 2.7 1.18 5.14 5.14 0 0 1 1 3.5v16h4.64V21.09a8.1 8.1 0 0 0-.44-2.77zm-52.71-3.26A3.89 3.89 0 0 0 21.17 18v19.9h4.59V14.53zM17 34.12a4.91 4.91 0 0 1-1.12.91 2.6 2.6 0 0 1-1.42.38 2.49 2.49 0 0 1-2.5-2.5V16.44h5.22v-2h-5.25V7.09l-2.09.54a4 4 0 0 0-2.56 3.2v3.65h-2.8v1.93h2.8v16.5a6.51 6.51 0 0 0 1.1 4 4 4 0 0 0 3.46 1.5 7.15 7.15 0 0 0 3.81-.94 7.11 7.11 0 0 0 2.48-2.54z"/></symbol><symbol id="logo-white" viewBox="0 0 238.06 45.19" xmlns="http://www.w3.org/2000/svg"><defs><style>.ecls-1{fill:#f4f4f4}</style></defs><title>Logo_SVG</title><path class="ecls-1" d="M41.79 38.36a11.26 11.26 0 0 1-4.45-.89A11.77 11.77 0 0 1 33.71 35a11.2 11.2 0 0 1-2.46-3.59 11 11 0 0 1-.89-4.41 15.58 15.58 0 0 1 .83-5.2 12.51 12.51 0 0 1 2.32-4.13A10.57 10.57 0 0 1 37.12 15a11.15 11.15 0 0 1 4.71-1 11 11 0 0 1 4.24.8 10.35 10.35 0 0 1 3.3 2.2 9.59 9.59 0 0 1 2.91 6.89H34.82a15.25 15.25 0 0 0 .61 4.38 11.06 11.06 0 0 0 1.69 3.48A8 8 0 0 0 39.73 34a6.9 6.9 0 0 0 3.35.82 8.69 8.69 0 0 0 2.92-.48 9.88 9.88 0 0 0 2.53-1.29 9.38 9.38 0 0 0 1.92-1.85 6.67 6.67 0 0 0 1.11-2.12l1.34.58a10.66 10.66 0 0 1-1.61 3.41 12.23 12.23 0 0 1-2.63 2.74 13.33 13.33 0 0 1-3.28 1.86 9.78 9.78 0 0 1-3.59.69zM46.43 22a6.52 6.52 0 0 0-.43-2.5 6.07 6.07 0 0 0-1.3-2 5.88 5.88 0 0 0-4.26-1.78 4.61 4.61 0 0 0-2 .47 5.47 5.47 0 0 0-1.7 1.31 7.74 7.74 0 0 0-1.22 2 8.29 8.29 0 0 0-.7 2.5zm79.67 15.87h-4.64v-3.21c-.54.41-1.07.84-1.61 1.29a10.73 10.73 0 0 1-1.74 1.2 9.44 9.44 0 0 1-2 .87 8.79 8.79 0 0 1-2.59.34 5.89 5.89 0 0 1-4.42-1.65 5.78 5.78 0 0 1-1.61-4.2 5.85 5.85 0 0 1 1.32-3.86 11.46 11.46 0 0 1 3.35-2.7 23.38 23.38 0 0 1 4.51-1.87q2.47-.76 4.84-1.34v-1.48c0-2.14-.4-3.63-1.21-4.46a4.42 4.42 0 0 0-3.34-1.25 5.06 5.06 0 0 0-1.9.31 3.08 3.08 0 0 0-1.16.81 2.64 2.64 0 0 0-.58 1.11 5.09 5.09 0 0 0-.16 1.3 4.7 4.7 0 0 1-.47 2.18 1.86 1.86 0 0 1-1.85.94 2.25 2.25 0 0 1-1.76-.78 2.89 2.89 0 0 1-.69-2 3.42 3.42 0 0 1 .76-2.14 6.79 6.79 0 0 1 2.05-1.72 12.1 12.1 0 0 1 3-1.16 15.32 15.32 0 0 1 3.6-.4 14.3 14.3 0 0 1 3.86.45 7 7 0 0 1 2.57 1.24 4.8 4.8 0 0 1 1.43 2 7.17 7.17 0 0 1 .44 2.54zm-4.64-13.66c-1 .33-2.07.72-3.17 1.18a18.63 18.63 0 0 0-3 1.61 10.15 10.15 0 0 0-2.29 2 3.5 3.5 0 0 0-.89 2.32 4.33 4.33 0 0 0 .31 1.63 4.41 4.41 0 0 0 .85 1.36 4.06 4.06 0 0 0 1.2.91 3.1 3.1 0 0 0 1.43.34 5.46 5.46 0 0 0 2.86-.78c.86-.52 1.77-1.13 2.72-1.81zm71.85 14.46a14.44 14.44 0 0 1-5.21-.92 12.44 12.44 0 0 1-4.1-2.54 11.53 11.53 0 0 1-3.66-8.54 12.74 12.74 0 0 1 1-5 11.91 11.91 0 0 1 2.7-4 12.58 12.58 0 0 1 4.11-2.6 14 14 0 0 1 5.21-1 14.25 14.25 0 0 1 5.22.93 13.14 13.14 0 0 1 4.13 2.51 11.53 11.53 0 0 1 2.74 3.75 11 11 0 0 1 1 4.63 12.36 12.36 0 0 1-1 4.92 12.22 12.22 0 0 1-2.74 4 13.3 13.3 0 0 1-4.13 2.72 13.13 13.13 0 0 1-5.27 1.14zm.95-2.88a2.83 2.83 0 0 0 1.79-.65 5.55 5.55 0 0 0 1.4-1.72 9.69 9.69 0 0 0 .92-2.5 12.47 12.47 0 0 0 .31-3 25.81 25.81 0 0 0-.38-4.24 13 13 0 0 0-1.11-3.5 6.37 6.37 0 0 0-2-2.36 5 5 0 0 0-3-.84 2.48 2.48 0 0 0-1.61.64 5.69 5.69 0 0 0-1.33 1.7 10.24 10.24 0 0 0-.92 2.43 11.05 11.05 0 0 0-.33 2.91 21.17 21.17 0 0 0 .46 4.31 14 14 0 0 0 1.25 3.51 7.45 7.45 0 0 0 2 2.39 4.07 4.07 0 0 0 2.55.92zm-18.94-17.05a7.9 7.9 0 0 0-1.62-2.38 7.55 7.55 0 0 0-2.36-1.59 7.16 7.16 0 0 0-2.87-.59 12.32 12.32 0 0 0-4.38.84 12.87 12.87 0 0 0-3.8 2.13 6.8 6.8 0 0 0-2.85-2.15 9.29 9.29 0 0 0-3.67-.79 9.73 9.73 0 0 0-3.48.68 16.69 16.69 0 0 0-3.48 1.84V14l-5.24 1.46a2.47 2.47 0 0 0-1.91 2.45v20.31h7.15v-17.3a9.78 9.78 0 0 1 2.36-1.79 5.27 5.27 0 0 1 2.54-.77 1.61 1.61 0 0 1 .94.32 3.21 3.21 0 0 1 .81.83 4 4 0 0 1 .56 1.21 5.62 5.62 0 0 1 .2 1.51v16h7.1V20.92a7.6 7.6 0 0 1 2.25-1.79 5.48 5.48 0 0 1 2.6-.77 2.09 2.09 0 0 1 1.8 1.15 5 5 0 0 1 .72 2.72v16h7.24V21.64a7.18 7.18 0 0 0-.61-2.9zm37.54-14.07A2.67 2.67 0 0 0 211 6.91v31.31h7.1v-35zm12.27 4.95a4.15 4.15 0 0 0 5.43 0 3.17 3.17 0 0 0 1.13-2.45 3.24 3.24 0 0 0-1.13-2.47 4.09 4.09 0 0 0-5.43 0A3.24 3.24 0 0 0 224 7.17a3.17 3.17 0 0 0 1.13 2.45zm1.17 5.76a2.79 2.79 0 0 0-2 2.6v20.24h7.1V14l-5.12 1.42zM21.57 9.42a2.75 2.75 0 0 0 1.89.69 2.8 2.8 0 0 0 1.88-.69 2.11 2.11 0 0 0 .8-1.67 2.07 2.07 0 0 0-.8-1.63 2.81 2.81 0 0 0-1.88-.7 2.76 2.76 0 0 0-1.89.7 2.11 2.11 0 0 0-.78 1.63 2.16 2.16 0 0 0 .78 1.67zm79.83-6.14l-.19.07a3.1 3.1 0 0 0-2.42 2.32v10.51a8.43 8.43 0 0 0-2.37-1.61 7.19 7.19 0 0 0-3-.58 11.09 11.09 0 0 0-4.78 1 13.19 13.19 0 0 0-6.54 6.78 11.8 11.8 0 0 0-1 4.67 13.71 13.71 0 0 0 .81 4.56A12.45 12.45 0 0 0 84 34.81a10.17 10.17 0 0 0 3.15 2.59 8.09 8.09 0 0 0 3.86 1 12.15 12.15 0 0 0 4.08-.74 12.34 12.34 0 0 0 3.69-2v2.77h4.64V2.7zm-2.61 30.17a9.09 9.09 0 0 1-2.28 1.67 6 6 0 0 1-2.86.74 5.24 5.24 0 0 1-2.86-.86 8.11 8.11 0 0 1-2.34-2.3 11.53 11.53 0 0 1-1.58-3.39 14.35 14.35 0 0 1-.58-4.17 13.48 13.48 0 0 1 .51-3.8 9.65 9.65 0 0 1 1.43-3 6.93 6.93 0 0 1 2.12-1.94 5.13 5.13 0 0 1 2.59-.69 5.35 5.35 0 0 1 2.12.45 5.85 5.85 0 0 1 1.87 1.25 6.16 6.16 0 0 1 1.34 1.94 6 6 0 0 1 .52 2.52zM76.4 18.32a7.53 7.53 0 0 0-1.27-2.26 6.06 6.06 0 0 0-1.88-1.51A4.74 4.74 0 0 0 71 14a10.12 10.12 0 0 0-4.64 1.16 15.1 15.1 0 0 0-4.42 3.57v-4l-2.48.72a3.71 3.71 0 0 0-2.17 3.15v19.27h4.65V20.51a13.67 13.67 0 0 1 3.34-2.44 7.16 7.16 0 0 1 3.22-.91 3.44 3.44 0 0 1 2.7 1.18 5.14 5.14 0 0 1 1 3.5v16h4.64V21.09a8.1 8.1 0 0 0-.44-2.77zm-52.71-3.26A3.89 3.89 0 0 0 21.17 18v19.9h4.59V14.53zM17 34.12a4.91 4.91 0 0 1-1.12.91 2.6 2.6 0 0 1-1.42.38 2.49 2.49 0 0 1-2.5-2.5V16.44h5.22v-2h-5.25V7.09l-2.09.54a4 4 0 0 0-2.56 3.2v3.65h-2.8v1.93h2.8v16.5a6.51 6.51 0 0 0 1.1 4 4 4 0 0 0 3.46 1.5 7.15 7.15 0 0 0 3.81-.94 7.11 7.11 0 0 0 2.48-2.54z"/></symbol><symbol viewBox="0 0 511.977 511.977" id="pinterest" xmlns="http://www.w3.org/2000/svg"><path d="M262.948 0C122.628 0 48.004 89.92 48.004 187.968c0 45.472 25.408 102.176 66.08 120.16 6.176 2.784 9.536 1.6 10.912-4.128 1.216-4.352 6.56-25.312 9.152-35.2.8-3.168.384-5.92-2.176-8.896-13.504-15.616-24.224-44.064-24.224-70.752 0-68.384 54.368-134.784 146.88-134.784 80 0 135.968 51.968 135.968 126.304 0 84-44.448 142.112-102.208 142.112-31.968 0-55.776-25.088-48.224-56.128 9.12-36.96 27.008-76.704 27.008-103.36 0-23.904-13.504-43.68-41.088-43.68-32.544 0-58.944 32.224-58.944 75.488 0 27.488 9.728 46.048 9.728 46.048S144.676 371.2 138.692 395.488c-10.112 41.12 1.376 107.712 2.368 113.44.608 3.168 4.16 4.16 6.144 1.568 3.168-4.16 42.08-59.68 52.992-99.808 3.968-14.624 20.256-73.92 20.256-73.92 10.72 19.36 41.664 35.584 74.624 35.584 98.048 0 168.896-86.176 168.896-193.12C463.62 76.704 375.876 0 262.948 0z"/></symbol><symbol viewBox="0 0 486.569 486.569" id="shopping-cart" xmlns="http://www.w3.org/2000/svg"><path d="M146.069 320.369h268.1c30.4 0 55.2-24.8 55.2-55.2v-114c0-.2 0-.4-.1-.6 0-.2-.1-.5-.1-.7s-.1-.4-.1-.6c-.1-.2-.1-.4-.2-.7-.1-.2-.1-.4-.2-.6-.1-.2-.1-.4-.2-.6-.1-.2-.2-.4-.3-.7-.1-.2-.2-.4-.3-.5l-.3-.6c-.1-.2-.2-.3-.3-.5-.1-.2-.3-.4-.4-.6-.1-.2-.2-.3-.4-.5-.1-.2-.3-.3-.4-.5s-.3-.3-.4-.5-.3-.3-.4-.4l-.5-.5c-.2-.1-.3-.3-.5-.4-.2-.1-.4-.3-.6-.4-.2-.1-.3-.2-.5-.3s-.4-.2-.6-.4l-.6-.3-.6-.3-.6-.3c-.2-.1-.4-.1-.6-.2-.2-.1-.5-.2-.7-.2s-.4-.1-.5-.1c-.3-.1-.5-.1-.8-.1-.1 0-.2-.1-.4-.1l-339.8-46.9v-47.4c0-.5 0-1-.1-1.4 0-.1 0-.2-.1-.4 0-.3-.1-.6-.1-.9-.1-.3-.1-.5-.2-.8 0-.2-.1-.3-.1-.5l-.3-.9c0-.1-.1-.3-.1-.4-.1-.3-.2-.5-.4-.8-.1-.1-.1-.3-.2-.4-.1-.2-.2-.4-.4-.6-.1-.2-.2-.3-.3-.5s-.2-.3-.3-.5-.3-.4-.4-.6l-.3-.3-.6-.6-.3-.3c-.2-.2-.4-.4-.7-.6-.1-.1-.3-.2-.4-.3-.2-.2-.4-.3-.6-.5-.3-.2-.6-.4-.8-.5-.1-.1-.2-.1-.3-.2-.4-.2-.9-.4-1.3-.6l-73.7-31c-6.9-2.9-14.8.3-17.7 7.2s.3 14.8 7.2 17.7l65.4 27.6v295.8c0 28 21 51.2 48.1 54.7-4.9 8.2-7.8 17.8-7.8 28 0 30.1 24.5 54.5 54.5 54.5s54.5-24.5 54.5-54.5c0-10-2.7-19.5-7.5-27.5h121.4c-4.8 8.1-7.5 17.5-7.5 27.5 0 30.1 24.5 54.5 54.5 54.5s54.5-24.5 54.5-54.5-24.5-54.5-54.5-54.5h-255c-15.6 0-28.2-12.7-28.2-28.2v-36.6c8.2 4.8 17.9 7.6 28.2 7.6zm67.2 111.6c0 15.2-12.4 27.5-27.5 27.5s-27.5-12.4-27.5-27.5 12.4-27.5 27.5-27.5 27.5 12.3 27.5 27.5zm215.4 0c0 15.2-12.4 27.5-27.5 27.5s-27.5-12.4-27.5-27.5 12.4-27.5 27.5-27.5 27.5 12.3 27.5 27.5zm-14.5-138.6h-268.1c-15.6 0-28.2-12.7-28.2-28.2v-145.9l324.5 44.7v101.1c0 15.7-12.7 28.3-28.2 28.3z"/></symbol><symbol viewBox="0 0 512 512" id="truck" xmlns="http://www.w3.org/2000/svg"><path d="M119.467 337.067c-28.237 0-51.2 22.963-51.2 51.2 0 28.237 22.963 51.2 51.2 51.2s51.2-22.963 51.2-51.2c0-28.237-22.964-51.2-51.2-51.2zm0 85.333c-18.825 0-34.133-15.309-34.133-34.133 0-18.825 15.309-34.133 34.133-34.133s34.133 15.309 34.133 34.133c0 18.824-15.309 34.133-34.133 34.133zM409.6 337.067c-28.237 0-51.2 22.963-51.2 51.2 0 28.237 22.963 51.2 51.2 51.2 28.237 0 51.2-22.963 51.2-51.2 0-28.237-22.963-51.2-51.2-51.2zm0 85.333c-18.825 0-34.133-15.309-34.133-34.133 0-18.825 15.309-34.133 34.133-34.133 18.825 0 34.133 15.309 34.133 34.133 0 18.824-15.308 34.133-34.133 34.133z"/><path d="M510.643 289.784l-76.8-119.467a8.535 8.535 0 0 0-7.177-3.917H332.8a8.53 8.53 0 0 0-8.533 8.533v213.333a8.525 8.525 0 0 0 8.533 8.533h34.133v-17.067h-25.6V183.467h80.674l72.926 113.442v82.825h-42.667V396.8h51.2a8.525 8.525 0 0 0 8.533-8.533V294.4a8.51 8.51 0 0 0-1.356-4.616z"/><path d="M375.467 277.333V217.6h68.267v-17.067h-76.8a8.53 8.53 0 0 0-8.533 8.533v76.8a8.525 8.525 0 0 0 8.533 8.533h128v-17.067H375.467zM332.8 106.667H8.533A8.536 8.536 0 0 0 0 115.2v273.067a8.53 8.53 0 0 0 8.533 8.533H76.8v-17.067H17.067v-256h307.2v256H162.133V396.8H332.8a8.525 8.525 0 0 0 8.533-8.533V115.2a8.53 8.53 0 0 0-8.533-8.533z"/><path d="M8.533 345.6h51.2v17.067h-51.2zm170.667 0h145.067v17.067H179.2zm290.133 0h34.133v17.067h-34.133zm-435.2-204.8H332.8v17.067H34.133zm76.8 238.933H128V396.8h-17.067zm290.134 0h17.067V396.8h-17.067zM34.133 72.533H153.6V89.6H34.133zM0 72.533h17.067V89.6H0z"/></symbol></svg>