<svg id="Capa_1" data-name="Capa 1" xmlns="http://www.w3.org/2000/svg" viewBox="0 0 172.85 175.13"><defs><style>.cls-1{fill:#4d4d4d;}</style></defs><title>Logo_SVG</title><path class="cls-1" d="M166.84,90.59a1,1,0,0,1,.4.1.92.92,0,0,1,.31.24,1.13,1.13,0,0,1,.21.35,1.08,1.08,0,0,1,.05.41.92.92,0,0,1-.1.41,1.14,1.14,0,0,1-.23.33,1.08,1.08,0,0,1-.34.21.93.93,0,0,1-.41.06.87.87,0,0,1-.39-.1,1,1,0,0,1-.31-.24.94.94,0,0,1-.2-.35,1,1,0,0,1-.06-.42,1.08,1.08,0,0,1,.1-.41,1.24,1.24,0,0,1,.23-.32,1.08,1.08,0,0,1,.34-.21A.91.91,0,0,1,166.84,90.59Z"/><path class="cls-1" d="M161.84,117a4,4,0,0,1-1.25-.69,3,3,0,0,1-.79-1,2.75,2.75,0,0,1-.31-1.17,3.18,3.18,0,0,1,.2-1.3,3.22,3.22,0,0,1,.65-1.13,2.77,2.77,0,0,1,1-.72,3.24,3.24,0,0,1,1.22-.26,4.19,4.19,0,0,1,1.4.25,4.1,4.1,0,0,1,1.24.68,3.23,3.23,0,0,1,.8,1,2.9,2.9,0,0,1,.31,1.17,3.27,3.27,0,0,1-.19,1.29,3.35,3.35,0,0,1-.66,1.14,2.69,2.69,0,0,1-1,.72,3.25,3.25,0,0,1-1.23.26A4.17,4.17,0,0,1,161.84,117Zm.17-.47a3.8,3.8,0,0,0,1.24.23,2.65,2.65,0,0,0,1.07-.2,2.24,2.24,0,0,0,.84-.6,2.93,2.93,0,0,0,.56-1,2.85,2.85,0,0,0,.16-1.1,2.44,2.44,0,0,0-.27-1,2.64,2.64,0,0,0-.71-.83,3.46,3.46,0,0,0-1.11-.6,3.68,3.68,0,0,0-1.25-.24,2.65,2.65,0,0,0-1.07.21,2.49,2.49,0,0,0-.84.6,3,3,0,0,0-.55,1,2.87,2.87,0,0,0-.17,1.1,2.22,2.22,0,0,0,.27,1,2.76,2.76,0,0,0,.71.83A3.82,3.82,0,0,0,162,116.56Z"/><path class="cls-1" d="M154.84,124l5.76,3.33-1,1.66a3.53,3.53,0,0,1-.59.8,1.77,1.77,0,0,1-.63.43,1.4,1.4,0,0,1-.67.09,1.71,1.71,0,0,1-.68-.25,1.41,1.41,0,0,1-.4-.33,1.89,1.89,0,0,1-.26-.46,1.63,1.63,0,0,1-.09-.55,1.9,1.9,0,0,1,.08-.61,2.17,2.17,0,0,1-1.06.78,1.36,1.36,0,0,1-1.13-.17,1.85,1.85,0,0,1-.59-.51,1.76,1.76,0,0,1-.28-.66,2,2,0,0,1,0-.8,3.08,3.08,0,0,1,.37-.88Zm2.52,2-2.43-1.4-.84,1.44a2,2,0,0,0-.33,1.34,1.3,1.3,0,0,0,.7.92,1.15,1.15,0,0,0,.55.18,1.13,1.13,0,0,0,.54-.08,1.5,1.5,0,0,0,.51-.35,2.43,2.43,0,0,0,.46-.6Zm.31.18-.73,1.25a2.4,2.4,0,0,0-.29.74,1.61,1.61,0,0,0,0,.62,1.16,1.16,0,0,0,.22.49,1.41,1.41,0,0,0,.39.34,1.26,1.26,0,0,0,1.1.14,2,2,0,0,0,.95-1l.72-1.24Z"/><path class="cls-1" d="M147.61,138.46a3.26,3.26,0,0,1-.67-.74,2.14,2.14,0,0,1-.31-.76,1.64,1.64,0,0,1,.06-.76,2.13,2.13,0,0,1,.42-.74c.09-.11.19-.21.29-.31a2.75,2.75,0,0,1,.37-.28l.09.1.09.09a.2.2,0,0,1,0,.08s0,.05,0,.09l-.08.07-.12.08-.14.13a.74.74,0,0,0-.17.18,1.66,1.66,0,0,0-.33.57,1.31,1.31,0,0,0,0,.59,1.5,1.5,0,0,0,.26.62,3,3,0,0,0,.58.61l3.43,2.83-.31.37Z"/><path class="cls-1" d="M140.8,151.49l-.27-.31,2.64-2.31-1.78-2-2.19,1.92-.26-.29,2.19-1.93-1.84-2.08-2.63,2.31-.26-.3,3-2.63,4.41,5Z"/><path class="cls-1" d="M128.88,159.79l-.21-.35,2-1.23-3.28-5.32.41-.25,3.28,5.32,2-1.23.22.35Z"/><path class="cls-1" d="M113.92,163a4,4,0,0,1-.3-1.39,3.17,3.17,0,0,1,.21-1.24,2.92,2.92,0,0,1,.68-1,3.24,3.24,0,0,1,1.12-.7,3.28,3.28,0,0,1,1.28-.25,2.92,2.92,0,0,1,1.18.27,3.32,3.32,0,0,1,1,.76,4.3,4.3,0,0,1,.73,1.22,4.22,4.22,0,0,1,.29,1.39,3.09,3.09,0,0,1-.21,1.23,2.86,2.86,0,0,1-.68,1,3.23,3.23,0,0,1-1.11.7,3.18,3.18,0,0,1-1.29.25,3,3,0,0,1-1.19-.27,3.16,3.16,0,0,1-1-.77A3.89,3.89,0,0,1,113.92,163Zm.46-.18a3.73,3.73,0,0,0,.64,1.09,2.72,2.72,0,0,0,.85.68,2.45,2.45,0,0,0,1,.24,3.11,3.11,0,0,0,1.1-.21,2.74,2.74,0,0,0,.93-.59,2.38,2.38,0,0,0,.58-.86,2.72,2.72,0,0,0,.16-1.08,3.7,3.7,0,0,0-.27-1.24,3.84,3.84,0,0,0-.65-1.09,2.72,2.72,0,0,0-.85-.68,2.33,2.33,0,0,0-1-.23,2.66,2.66,0,0,0-1.08.21,2.94,2.94,0,0,0-1,.59,2.4,2.4,0,0,0-.57.86,2.83,2.83,0,0,0-.16,1.07A4,4,0,0,0,114.38,162.81Z"/><path class="cls-1" d="M102,168.65a.15.15,0,0,1,.11-.11.23.23,0,0,1,.17.06,2.2,2.2,0,0,0,.3.14,2.81,2.81,0,0,0,.44.11,2,2,0,0,0,.62,0,1.7,1.7,0,0,0,.6-.22,1.43,1.43,0,0,0,.4-.37,1.18,1.18,0,0,0,.2-.46,1.46,1.46,0,0,0,0-.51,1.1,1.1,0,0,0-.25-.52,1.39,1.39,0,0,0-.45-.29,2.46,2.46,0,0,0-.58-.15l-.64-.09-.65-.1a2.47,2.47,0,0,1-.58-.2,1.47,1.47,0,0,1-.47-.39,1.4,1.4,0,0,1-.27-.64,2.16,2.16,0,0,1,0-.8,1.94,1.94,0,0,1,.29-.71,1.91,1.91,0,0,1,.57-.56,2.6,2.6,0,0,1,.85-.33,2.65,2.65,0,0,1,1.16,0,2.7,2.7,0,0,1,1,.46l-.09.23a.19.19,0,0,1-.12.1.24.24,0,0,1-.12,0l-.18-.1A1.26,1.26,0,0,0,104,163a1.61,1.61,0,0,0-.33-.12,2.65,2.65,0,0,0-.42-.06,2.46,2.46,0,0,0-.52.05,1.91,1.91,0,0,0-.67.25,1.43,1.43,0,0,0-.45.43,1.45,1.45,0,0,0-.23.54,1.85,1.85,0,0,0,0,.62,1.09,1.09,0,0,0,.26.55,1.19,1.19,0,0,0,.45.3,2.38,2.38,0,0,0,.57.14l.64.08c.22,0,.44.06.65.1a2.42,2.42,0,0,1,.59.2,1.41,1.41,0,0,1,.46.39,1.53,1.53,0,0,1,.28.67,1.63,1.63,0,0,1,0,.66,1.57,1.57,0,0,1-.26.61,1.71,1.71,0,0,1-.51.49,2.09,2.09,0,0,1-.78.31,2.78,2.78,0,0,1-1,0,2.35,2.35,0,0,1-.84-.35Z"/><path class="cls-1" d="M76.53,166.7a4.06,4.06,0,0,1,.36-1.36,3.11,3.11,0,0,1,.76-1,2.84,2.84,0,0,1,1.06-.56,3.52,3.52,0,0,1,1.31-.1l2.42.24-.67,6.63-2.41-.24a3.61,3.61,0,0,1-1.27-.36,2.76,2.76,0,0,1-.93-.76,2.88,2.88,0,0,1-.54-1.11A4,4,0,0,1,76.53,166.7Zm.49.05a4,4,0,0,0,.07,1.26,2.55,2.55,0,0,0,.45,1,2.5,2.5,0,0,0,.78.66,3.08,3.08,0,0,0,1.08.3l1.93.19.59-5.85L80,164.09a2.89,2.89,0,0,0-1.11.09,2.32,2.32,0,0,0-.9.49,2.43,2.43,0,0,0-.63.86A3.7,3.7,0,0,0,77,166.75Z"/><path class="cls-1" d="M62.36,166.87l.12-.39,3.36,1,.75-2.59-2.8-.81.11-.38,2.8.81.77-2.67-3.37-1,.11-.38,3.84,1.1L66.2,168Z"/><path class="cls-1" d="M41,152.53a3.82,3.82,0,0,1,1-1,2.93,2.93,0,0,1,1.12-.52,2.7,2.7,0,0,1,1.2,0,3.44,3.44,0,0,1,1.21.52l2,1.34-3.67,5.56-2-1.34a3.36,3.36,0,0,1-1-.91,2.89,2.89,0,0,1-.47-1.1,3.07,3.07,0,0,1,0-1.24A4,4,0,0,1,41,152.53Zm.41.28a3.62,3.62,0,0,0-.52,1.14,2.6,2.6,0,0,0,0,1.07,2.2,2.2,0,0,0,.38.94,3.14,3.14,0,0,0,.81.77l1.62,1.07,3.24-4.9-1.62-1.08a2.9,2.9,0,0,0-1-.43,2.24,2.24,0,0,0-1,0,2.68,2.68,0,0,0-1,.47A3.74,3.74,0,0,0,41.45,152.81Z"/><path class="cls-1" d="M28.44,146.14l.28-.29,2.53,2.42,1.86-2-2.11-2,.27-.28,2.11,2,1.92-2-2.54-2.42.28-.29,2.89,2.75-4.6,4.82Z"/><path class="cls-1" d="M23.32,131.3a.11.11,0,0,1,0-.08l.05-.27a2.4,2.4,0,0,1,.59.13,2.53,2.53,0,0,1,.56.25,3.21,3.21,0,0,1,.53.4,4.87,4.87,0,0,1,.51.57,3.29,3.29,0,0,1,.55,1.17,2.71,2.71,0,0,1,0,1.2,3.24,3.24,0,0,1-.49,1.16,4,4,0,0,1-1,1,3.78,3.78,0,0,1-1.25.63,3.07,3.07,0,0,1-1.27.09,2.85,2.85,0,0,1-1.17-.42,3.4,3.4,0,0,1-1-.92,4.63,4.63,0,0,1-.35-.57,2.37,2.37,0,0,1-.2-.54,2.63,2.63,0,0,1-.09-.55,3.66,3.66,0,0,1,0-.57h.26a.14.14,0,0,1,.11.06.21.21,0,0,1,0,.12v.21c0,.08,0,.18,0,.29a2.73,2.73,0,0,0,.25.81,3,3,0,0,0,.3.5,2.91,2.91,0,0,0,.83.78,2.5,2.5,0,0,0,1,.35,2.6,2.6,0,0,0,1.1-.09,3.6,3.6,0,0,0,1.12-.57,3.69,3.69,0,0,0,.9-.91,2.74,2.74,0,0,0,.43-1,2.38,2.38,0,0,0,0-1,2.58,2.58,0,0,0-.46-1,3.41,3.41,0,0,0-.41-.48,2.16,2.16,0,0,0-.42-.34,2,2,0,0,0-.44-.21,3.29,3.29,0,0,0-.5-.14l-.05,0A.05.05,0,0,1,23.32,131.3Z"/><path class="cls-1" d="M14,118.81a4.06,4.06,0,0,1,1.37-.39,3.18,3.18,0,0,1,1.24.12,2.81,2.81,0,0,1,1.05.62,3.48,3.48,0,0,1,.78,1.07,3.28,3.28,0,0,1,.33,1.26,2.86,2.86,0,0,1-.2,1.2,3.19,3.19,0,0,1-.69,1,4,4,0,0,1-1.16.81,4.06,4.06,0,0,1-1.37.39,3.23,3.23,0,0,1-1.25-.14,3,3,0,0,1-1.05-.61,3.26,3.26,0,0,1-.77-1.06,3.32,3.32,0,0,1-.33-1.27,2.86,2.86,0,0,1,.19-1.2,3.07,3.07,0,0,1,.7-1A4,4,0,0,1,14,118.81Zm.21.45a3.72,3.72,0,0,0-1.05.71,2.72,2.72,0,0,0-.61.89,2.2,2.2,0,0,0-.18,1A2.93,2.93,0,0,0,12.6,123a2.72,2.72,0,0,0,.66.89,2.43,2.43,0,0,0,.89.52,2.8,2.8,0,0,0,1.09.09,3.69,3.69,0,0,0,1.21-.36,3.85,3.85,0,0,0,1.06-.71,2.87,2.87,0,0,0,.61-.9,2.38,2.38,0,0,0,.17-1A2.88,2.88,0,0,0,18,120.4a2.77,2.77,0,0,0-.66-.9,2.27,2.27,0,0,0-.89-.51,2.56,2.56,0,0,0-1.08-.09A3.81,3.81,0,0,0,14.16,119.26Z"/><path class="cls-1" d="M10.92,109.05l2.92-.77.12.47-6.45,1.68-.43-1.64a2.81,2.81,0,0,1,0-1.78,1.54,1.54,0,0,1,1.12-.88,1.72,1.72,0,0,1,.71,0,1.66,1.66,0,0,1,.63.23,1.93,1.93,0,0,1,.53.47,3.19,3.19,0,0,1,.39.71.71.71,0,0,1,.13-.24l2.21-3,.1.41a.2.2,0,0,1,0,.13.33.33,0,0,1-.07.13l-2.07,2.74a.5.5,0,0,0-.1.21.78.78,0,0,0,0,.28Zm-.34.09-.3-1.12a2.56,2.56,0,0,0-.3-.75,1.92,1.92,0,0,0-.44-.49,1.21,1.21,0,0,0-.56-.24,1.56,1.56,0,0,0-.64,0,1.27,1.27,0,0,0-.9.72,2.29,2.29,0,0,0,0,1.4l.31,1.18Z"/><path class="cls-1" d="M11,90.78l0,.37a.2.2,0,0,1,0,.11.22.22,0,0,1-.09.07l-1.86.94.27,3.26,2,.62a.21.21,0,0,1,.1.06.21.21,0,0,1,0,.11l0,.37L4.62,94.52l0-.48ZM9,95.42l-.25-3L5.46,94.07l-.17.09-.21.08.22.05.19,0Z"/><path class="cls-1" d="M10.46,77.49a.09.09,0,0,1,0-.08l.22-.17a4,4,0,0,1,.35.49,3.53,3.53,0,0,1,.25.56,4.15,4.15,0,0,1,.13.65,4,4,0,0,1,0,.77A3.14,3.14,0,0,1,11.08,81a2.9,2.9,0,0,1-.78.92,3.19,3.19,0,0,1-1.13.53,3.88,3.88,0,0,1-1.42.1,4,4,0,0,1-1.36-.37,3.22,3.22,0,0,1-1-.77,3.14,3.14,0,0,1-.6-1.09,3.75,3.75,0,0,1-.12-1.35,5.06,5.06,0,0,1,.12-.65A3.93,3.93,0,0,1,5,77.72a2.8,2.8,0,0,1,.3-.46,2.56,2.56,0,0,1,.39-.42l.2.17a.15.15,0,0,1,0,.12s0,.06-.06.1l-.14.16-.18.22a1.69,1.69,0,0,0-.19.33,3.12,3.12,0,0,0-.17.44,3,3,0,0,0-.1.58,2.8,2.8,0,0,0,.1,1.13A2.49,2.49,0,0,0,5.7,81a2.68,2.68,0,0,0,.88.66A3.47,3.47,0,0,0,7.8,82a3.51,3.51,0,0,0,1.27-.08,2.66,2.66,0,0,0,1-.46,2.54,2.54,0,0,0,.67-.79,2.68,2.68,0,0,0,.3-1,3.55,3.55,0,0,0,0-.64,2.93,2.93,0,0,0-.09-.53,2.25,2.25,0,0,0-.19-.45,2.87,2.87,0,0,0-.28-.43l0,0S10.45,77.51,10.46,77.49Z"/><path class="cls-1" d="M13.52,67.89l-.12.47L7,66.67l.12-.47Z"/><path class="cls-1" d="M10.61,51.59,11,53.26a.34.34,0,0,1,0,.1.23.23,0,0,1,0,.09l-.13.3-.45-1.37a.49.49,0,0,1,0-.15.47.47,0,0,1,.05-.16Zm5.3.39a4.27,4.27,0,0,1,1.18.79,3,3,0,0,1,.72,1A2.82,2.82,0,0,1,18,55a3.41,3.41,0,0,1-.3,1.29A3.66,3.66,0,0,1,17,57.35a2.8,2.8,0,0,1-1,.63,3,3,0,0,1-1.25.16,4,4,0,0,1-1.37-.36A3.87,3.87,0,0,1,12.13,57a3.07,3.07,0,0,1-.71-1,2.88,2.88,0,0,1-.22-1.2,3.16,3.16,0,0,1,.31-1.27,3.26,3.26,0,0,1,.75-1.08,2.72,2.72,0,0,1,1-.63,3,3,0,0,1,1.24-.16A4,4,0,0,1,15.91,52Zm-.2.46a4,4,0,0,0-1.22-.34,2.76,2.76,0,0,0-1.09.11,2.41,2.41,0,0,0-.88.53,3,3,0,0,0-.64.92,2.82,2.82,0,0,0-.25,1.07,2.35,2.35,0,0,0,.19,1,2.79,2.79,0,0,0,.63.89,3.89,3.89,0,0,0,1.06.69,3.77,3.77,0,0,0,1.23.33,2.41,2.41,0,0,0,1.08-.12A2.21,2.21,0,0,0,16.7,57a2.7,2.7,0,0,0,.63-.9A2.77,2.77,0,0,0,17.6,55a2.33,2.33,0,0,0-.19-1,2.64,2.64,0,0,0-.64-.88A3.74,3.74,0,0,0,15.71,52.44Z"/><path class="cls-1" d="M18.21,41.47l.1,0,7.21-.21a1.88,1.88,0,0,1-.24-.14l-4.57-3.22.25-.35,5.45,3.84-.14.19a.2.2,0,0,1-.17.09l-7.23.21.23.14,4.59,3.23-.24.34L18,41.74l.14-.19A.19.19,0,0,1,18.21,41.47Z"/><path class="cls-1" d="M37.18,26.17A1.09,1.09,0,0,1,37,25.8a1.29,1.29,0,0,1,0-.39,1,1,0,0,1,.13-.38.83.83,0,0,1,.27-.32,1.05,1.05,0,0,1,.78-.24,1,1,0,0,1,.38.11,1.1,1.1,0,0,1,.31.26.87.87,0,0,1,.18.36.91.91,0,0,1,0,.4,1.07,1.07,0,0,1-.13.38.92.92,0,0,1-.27.32,1,1,0,0,1-.37.2,1.11,1.11,0,0,1-.4,0,.89.89,0,0,1-.38-.12A.84.84,0,0,1,37.18,26.17Z"/><path class="cls-1" d="M57.57,9.61l.49,1.16-1.78.76,2.17,5.15L57,17.3l-2.18-5.16L53,12.9l-.49-1.17Z"/><path class="cls-1" d="M69.7,13.06l-1.55.39L66.49,6.79,68,6.41Z"/><path class="cls-1" d="M82.06,4.25l.11,1.22-2.8.27.15,1.59,2.15-.2.11,1.17-2.15.2.15,1.63,2.81-.27.11,1.22-4.4.42-.64-6.83Z"/><path class="cls-1" d="M92.62,4.23l.13,0,.1.08L93,4.5l2.9,4.38V8.49c0-.12,0-.24,0-.35l.31-3.62,1.39.12L97,11.48l-.83-.07a.82.82,0,0,1-.3-.08.72.72,0,0,1-.23-.23L92.77,6.76c0,.12,0,.23,0,.35s0,.22,0,.32l-.31,3.66L91,11l.58-6.84.83.07Z"/><path class="cls-1" d="M112.34,11.39a3.49,3.49,0,0,1-.62,1.25,3.2,3.2,0,0,1-1,.85,3.37,3.37,0,0,1-1.27.39,4.19,4.19,0,0,1-1.47-.15L105.42,13l1.86-6.61,2.56.72a4,4,0,0,1,1.34.65,3.18,3.18,0,0,1,.88,1,3.12,3.12,0,0,1,.4,1.24A3.51,3.51,0,0,1,112.34,11.39ZM110.77,11a2.8,2.8,0,0,0,.13-.92,2,2,0,0,0-.18-.77,1.66,1.66,0,0,0-.46-.59,2.39,2.39,0,0,0-.75-.37l-1-.28-1.2,4.24,1,.29a2,2,0,0,0,.82.07,1.68,1.68,0,0,0,.7-.25,2,2,0,0,0,.56-.57A3.16,3.16,0,0,0,110.77,11Z"/><path class="cls-1" d="M124.52,20.4l-1.1-.54a.56.56,0,0,1-.26-.24.43.43,0,0,1-.06-.31l.16-1.25-2.33-1.15-.9.89a.49.49,0,0,1-.27.13.51.51,0,0,1-.34-.05l-1.12-.55,5.42-5,1.46.73Zm-2.78-4.3,1.68.83.26-2q0-.2.06-.45t.09-.54l-.38.41-.32.31Z"/><path class="cls-1" d="M143.18,31c0,.14-.1.27-.15.4l.4-.17.4-.14,3.69-1.23.16,0a.28.28,0,0,1,.13,0,.28.28,0,0,1,.12.08l.13.12.86.86L144.1,35.8l-1-1L145.88,32c.13-.13.29-.27.46-.42l-3.77,1.23a.57.57,0,0,1-.34,0,.75.75,0,0,1-.3-.17l-.15-.15a.67.67,0,0,1-.17-.29.57.57,0,0,1,0-.34l1.18-3.8-.21.26-.2.22-2.77,2.8-1-1,4.82-4.88.86.85.13.13a.38.38,0,0,1,.08.11.31.31,0,0,1,0,.13.55.55,0,0,1,0,.17l-1.19,3.72C143.28,30.74,143.23,30.87,143.18,31Z"/><path class="cls-1" d="M156.11,46.17a3.65,3.65,0,0,1-1.29.55,3.31,3.31,0,0,1-1.33,0,3.38,3.38,0,0,1-1.24-.53,3.73,3.73,0,0,1-1-1.06,3.86,3.86,0,0,1-.59-1.36,3.41,3.41,0,0,1,0-1.35,3.14,3.14,0,0,1,.52-1.22,3.63,3.63,0,0,1,1-1,3.75,3.75,0,0,1,1.29-.56,3.31,3.31,0,0,1,1.33,0,3.15,3.15,0,0,1,1.24.53,3.6,3.6,0,0,1,1,1.06,3.9,3.9,0,0,1,.59,1.37,3.33,3.33,0,0,1-.52,2.56A3.78,3.78,0,0,1,156.11,46.17Zm-.9-1.36a3,3,0,0,0,.69-.62,1.77,1.77,0,0,0,.36-.69,1.58,1.58,0,0,0,0-.75A2.1,2.1,0,0,0,156,42a2.22,2.22,0,0,0-.58-.6,1.66,1.66,0,0,0-.7-.26,1.91,1.91,0,0,0-.78.06,2.92,2.92,0,0,0-.84.4,3.23,3.23,0,0,0-.69.62,1.87,1.87,0,0,0-.36.7,1.54,1.54,0,0,0,0,.74,2.36,2.36,0,0,0,.34.77,2.15,2.15,0,0,0,.57.59,1.55,1.55,0,0,0,.7.27,1.93,1.93,0,0,0,.78-.07A2.79,2.79,0,0,0,155.21,44.81Z"/><path class="cls-1" d="M158.83,56.28l1,2.33-1.17.51L157,55.32l6.29-2.72.64,1.46Z"/><path class="cls-1" d="M161.72,68.62l-.41-1.55L168,65.32l.4,1.55Z"/></svg>